<?xml version="1.0" standalone="no"?><!-- Generator: Adobe Fireworks CS6, Export SVG Extension by Aaron Beall (http://fireworks.abeall.com) . Version: 0.6.1  --><!DOCTYPE svg PUBLIC "-//W3C//DTD SVG 1.1//EN" "http://www.w3.org/Graphics/SVG/1.1/DTD/svg11.dtd"><svg id="Untitled-Page%201" viewBox="0 0 232 77" style="background-color:#ffffff00" version="1.1"	xmlns="http://www.w3.org/2000/svg" xmlns:xlink="http://www.w3.org/1999/xlink" xml:space="preserve"	x="0px" y="0px" width="232px" height="77px">	<g id="Layer%201">		<g>			<g>				<path d="M 70.137 24.1999 L 74.91 24.1999 L 74.91 41.7799 L 85.7258 41.7799 L 85.7258 46.175 L 70.137 46.175 L 70.137 24.1999 Z" fill="#432918"/>				<path d="M 96.7576 24.0433 L 101.1586 24.0433 L 110.4554 46.175 L 105.4664 46.175 L 103.4829 41.2465 L 94.309 41.2465 L 92.3256 46.175 L 87.4601 46.175 L 96.7576 24.0433 ZM 101.7783 36.9769 L 98.8956 29.8512 L 96.0136 36.9769 L 101.7783 36.9769 Z" fill="#432918"/>				<path d="M 123.0984 24.1999 L 133.1709 24.1999 C 135.6498 24.1999 137.6022 24.8906 138.8417 26.1469 C 139.8341 27.1514 140.3297 28.3755 140.3297 29.8827 L 140.3297 29.9456 C 140.3297 32.4252 139.0281 33.8066 137.4787 34.686 C 139.9886 35.6584 141.5381 37.1342 141.5381 40.0846 L 141.5381 40.1476 C 141.5381 44.1665 138.3151 46.175 133.4186 46.175 L 123.0984 46.175 L 123.0984 24.1999 ZM 132.1481 33.0844 C 134.2551 33.0844 135.5878 32.3938 135.5878 30.7614 L 135.5878 30.6985 C 135.5878 29.2549 134.4725 28.4384 132.4579 28.4384 L 127.7471 28.4384 L 127.7471 33.0844 L 132.1481 33.0844 ZM 133.4186 41.9372 C 135.5262 41.9372 136.7969 41.1843 136.7969 39.5512 L 136.7969 39.4883 C 136.7969 38.0136 135.7119 37.1028 133.2634 37.1028 L 127.7471 37.1028 L 127.7471 41.9372 L 133.4186 41.9372 Z" fill="#432918"/>				<path d="M 144.5118 35.2509 L 144.5118 35.188 C 144.5118 28.9403 149.3773 23.8238 156.0717 23.8238 C 162.7659 23.8238 167.5693 28.8774 167.5693 35.1251 L 167.5693 35.188 C 167.5693 41.4352 162.7038 46.5525 156.0095 46.5525 C 149.3152 46.5525 144.5118 41.4975 144.5118 35.2509 ZM 162.5796 35.2509 L 162.5796 35.188 C 162.5796 31.4207 159.8529 28.2811 156.0095 28.2811 C 152.1669 28.2811 149.5015 31.3584 149.5015 35.1251 L 149.5015 35.188 C 149.5015 38.9549 152.2289 42.0938 156.0717 42.0938 C 159.9143 42.0938 162.5796 39.0178 162.5796 35.2509 Z" fill="#432918"/>				<path d="M 171.8137 24.1999 L 176.5867 24.1999 L 176.5867 41.7799 L 187.4025 41.7799 L 187.4025 46.175 L 171.8137 46.175 L 171.8137 24.1999 Z" fill="#432918"/>				<path d="M 189.5087 42.9732 L 192.3286 39.5512 C 194.281 41.1843 196.3265 42.2203 198.8055 42.2203 C 200.7586 42.2203 201.936 41.4352 201.936 40.1476 L 201.936 40.0846 C 201.936 38.8606 201.192 38.2325 197.566 37.2915 C 193.1961 36.1611 190.3762 34.9363 190.3762 30.5734 L 190.3762 30.5105 C 190.3762 26.5236 193.537 23.8867 197.9691 23.8867 C 201.1299 23.8867 203.8263 24.8906 206.0271 26.6802 L 203.5474 30.3217 C 201.6261 28.9718 199.7358 28.156 197.907 28.156 C 196.0788 28.156 195.1181 29.0033 195.1181 30.0708 L 195.1181 30.1337 C 195.1181 31.5773 196.0477 32.0484 199.7979 33.0215 C 204.1982 34.1834 206.6779 35.7843 206.6779 39.6142 L 206.6779 39.6764 C 206.6779 44.0414 203.3928 46.4889 198.713 46.4889 C 195.428 46.4889 192.1119 45.3277 189.5087 42.9732 Z" fill="#432918"/>				<path d="M 217.8022 24.0433 L 222.2025 24.0433 L 231.5 46.175 L 226.5104 46.175 L 224.5269 41.2465 L 215.3536 41.2465 L 213.3701 46.175 L 208.5047 46.175 L 217.8022 24.0433 ZM 222.8223 36.9769 L 219.9402 29.8512 L 217.0582 36.9769 L 222.8223 36.9769 Z" fill="#432918"/>				<path d="M 68.6498 73.42 L 71.4697 69.9981 C 73.4221 71.6311 75.4676 72.6671 77.9473 72.6671 C 79.8997 72.6671 81.077 71.8821 81.077 70.5951 L 81.077 70.5315 C 81.077 69.3081 80.3337 68.6803 76.7071 67.7387 C 72.3379 66.6076 69.5173 65.3842 69.5173 61.0199 L 69.5173 60.9583 C 69.5173 56.9702 72.6788 54.3333 77.1101 54.3333 C 80.2716 54.3333 82.968 55.3385 85.1681 57.1274 L 82.6885 60.7689 C 80.7672 59.4197 78.8768 58.6032 77.048 58.6032 C 75.2198 58.6032 74.2592 59.4505 74.2592 60.5179 L 74.2592 60.5809 C 74.2592 62.0251 75.1888 62.4956 78.939 63.4694 C 83.3393 64.6306 85.819 66.2315 85.819 70.0617 L 85.819 70.1246 C 85.819 74.4875 82.5339 76.9364 77.8541 76.9364 C 74.5691 76.9364 71.2529 75.7745 68.6498 73.42 Z" fill="#432918"/>				<path d="M 89.0101 65.6974 L 89.0101 65.6352 C 89.0101 59.3882 93.8756 54.271 100.5699 54.271 C 107.2642 54.271 112.0675 59.3253 112.0675 65.5729 L 112.0675 65.6352 C 112.0675 71.8821 107.202 77 100.5078 77 C 93.8135 77 89.0101 71.9443 89.0101 65.6974 ZM 107.0779 65.6974 L 107.0779 65.6352 C 107.0779 61.8679 104.3505 58.729 100.5078 58.729 C 96.6652 58.729 93.9998 61.8043 93.9998 65.5729 L 93.9998 65.6352 C 93.9998 69.4025 96.7266 72.5413 100.5699 72.5413 C 104.4125 72.5413 107.0779 69.4654 107.0779 65.6974 Z" fill="#432918"/>				<path d="M 115.3506 65.6974 L 115.3506 65.6352 C 115.3506 59.3882 119.9996 54.271 126.6629 54.271 C 130.7533 54.271 133.2019 55.6517 135.2164 57.6615 L 132.1791 61.2086 C 130.5056 59.67 128.8009 58.729 126.6318 58.729 C 122.9748 58.729 120.3406 61.8043 120.3406 65.5729 L 120.3406 65.6352 C 120.3406 69.4025 122.9127 72.5413 126.6318 72.5413 C 129.1108 72.5413 130.6298 71.5374 132.3344 69.9673 L 135.371 73.0754 C 133.1398 75.4921 130.6608 77 126.4766 77 C 120.0928 77 115.3506 72.0079 115.3506 65.6974 Z" fill="#432918"/>				<path d="M 139.3987 54.6471 L 144.1716 54.6471 L 144.1716 76.6225 L 139.3987 76.6225 L 139.3987 54.6471 Z" fill="#432918"/>				<path d="M 157.033 54.4898 L 161.4333 54.4898 L 170.7308 76.6225 L 165.7411 76.6225 L 163.7577 71.6934 L 154.5844 71.6934 L 152.601 76.6225 L 147.7355 76.6225 L 157.033 54.4898 ZM 162.053 67.4241 L 159.171 60.2991 L 156.2891 67.4241 L 162.053 67.4241 Z" fill="#432918"/>				<path d="M 174.0765 54.6471 L 178.8495 54.6471 L 178.8495 72.2274 L 189.6653 72.2274 L 189.6653 76.6225 L 174.0765 76.6225 L 174.0765 54.6471 Z" fill="#432918"/>			</g>			<path d="M 6.186 33.7567 L 6.186 76.6437 L 0.5 71.772 L 0.5 33.7567 L 6.186 33.7567 Z" fill="#f39200"/>			<path d="M 17.1578 6.1334 L 17.1578 46.1613 L 11.4717 46.1613 L 11.4717 6.1334 L 17.1578 6.1334 Z" fill="#f39200"/>			<path d="M 39.1016 6.1334 L 39.1016 46.1613 L 33.4152 46.1613 L 33.4152 6.1334 L 39.1016 6.1334 Z" fill="#f39200"/>			<path d="M 50.0734 17.2442 L 50.0734 46.1613 L 44.387 46.1613 L 44.387 17.2442 L 50.0734 17.2442 Z" fill="#f39200"/>			<path d="M 28.1299 0 L 28.1299 46.1613 L 22.4435 46.1613 L 22.4435 0 L 28.1299 0 Z" fill="#f39200"/>		</g>	</g></svg>