<?xml version="1.0" standalone="no"?><!-- Generator: Adobe Fireworks CS6, Export SVG Extension by Aaron Beall (http://fireworks.abeall.com) . Version: 0.6.1  --><!DOCTYPE svg PUBLIC "-//W3C//DTD SVG 1.1//EN" "http://www.w3.org/Graphics/SVG/1.1/DTD/svg11.dtd"><svg id="Untitled-Page%201" viewBox="0 0 131 44" style="background-color:#ffffff00" version="1.1"	xmlns="http://www.w3.org/2000/svg" xmlns:xlink="http://www.w3.org/1999/xlink" xml:space="preserve"	x="0px" y="0px" width="131px" height="44px">	<g id="Layer%201">		<g>			<g>				<path d="M 39.4911 13.8285 L 42.1979 13.8285 L 42.1979 23.8741 L 48.3315 23.8741 L 48.3315 26.3857 L 39.4911 26.3857 L 39.4911 13.8285 Z" fill="#432918"/>				<path d="M 54.5876 13.739 L 57.0834 13.739 L 62.3557 26.3857 L 59.5264 26.3857 L 58.4016 23.5695 L 53.1991 23.5695 L 52.0742 26.3857 L 49.315 26.3857 L 54.5876 13.739 ZM 57.4349 21.1296 L 55.8001 17.0579 L 54.1657 21.1296 L 57.4349 21.1296 Z" fill="#432918"/>				<path d="M 69.5255 13.8285 L 75.2376 13.8285 C 76.6434 13.8285 77.7506 14.2231 78.4535 14.941 C 79.0163 15.515 79.2973 16.2146 79.2973 17.0758 L 79.2973 17.1118 C 79.2973 18.5288 78.5592 19.3181 77.6806 19.8207 C 79.104 20.3762 79.9826 21.2196 79.9826 22.9055 L 79.9826 22.9414 C 79.9826 25.238 78.1549 26.3857 75.3781 26.3857 L 69.5255 26.3857 L 69.5255 13.8285 ZM 74.6576 18.9054 C 75.8524 18.9054 76.6082 18.5107 76.6082 17.578 L 76.6082 17.542 C 76.6082 16.717 75.9757 16.2506 74.8333 16.2506 L 72.1617 16.2506 L 72.1617 18.9054 L 74.6576 18.9054 ZM 75.3781 23.9641 C 76.5733 23.9641 77.2939 23.5339 77.2939 22.6007 L 77.2939 22.5647 C 77.2939 21.722 76.6786 21.2017 75.2901 21.2017 L 72.1617 21.2017 L 72.1617 23.9641 L 75.3781 23.9641 Z" fill="#432918"/>				<path d="M 81.6691 20.1433 L 81.6691 20.1074 C 81.6691 16.5372 84.4283 13.6136 88.2246 13.6136 C 92.0209 13.6136 94.7449 16.5013 94.7449 20.0714 L 94.7449 20.1074 C 94.7449 23.6772 91.9857 26.6014 88.1894 26.6014 C 84.393 26.6014 81.6691 23.7129 81.6691 20.1433 ZM 91.9153 20.1433 L 91.9153 20.1074 C 91.9153 17.9547 90.369 16.1606 88.1894 16.1606 C 86.0102 16.1606 84.4987 17.9191 84.4987 20.0714 L 84.4987 20.1074 C 84.4987 22.26 86.0454 24.0536 88.2246 24.0536 C 90.4038 24.0536 91.9153 22.2959 91.9153 20.1433 Z" fill="#432918"/>				<path d="M 97.1519 13.8285 L 99.8587 13.8285 L 99.8587 23.8741 L 105.9923 23.8741 L 105.9923 26.3857 L 97.1519 26.3857 L 97.1519 13.8285 Z" fill="#432918"/>				<path d="M 107.1868 24.5562 L 108.7859 22.6007 C 109.8931 23.5339 111.0532 24.1259 112.459 24.1259 C 113.5666 24.1259 114.2343 23.6772 114.2343 22.9414 L 114.2343 22.9055 C 114.2343 22.2061 113.8123 21.8472 111.7561 21.3093 C 109.2779 20.6635 107.6787 19.9636 107.6787 17.4705 L 107.6787 17.4346 C 107.6787 15.1564 109.4712 13.6495 111.9846 13.6495 C 113.7771 13.6495 115.3062 14.2231 116.5544 15.2458 L 115.1481 17.3267 C 114.0585 16.5553 112.9866 16.0891 111.9494 16.0891 C 110.9126 16.0891 110.3679 16.5732 110.3679 17.1833 L 110.3679 17.2192 C 110.3679 18.0442 110.895 18.3134 113.0218 18.8694 C 115.5172 19.5333 116.9234 20.4482 116.9234 22.6367 L 116.9234 22.6722 C 116.9234 25.1665 115.0605 26.5651 112.4065 26.5651 C 110.5435 26.5651 108.6631 25.9015 107.1868 24.5562 Z" fill="#432918"/>				<path d="M 123.232 13.739 L 125.7274 13.739 L 131 26.3857 L 128.1704 26.3857 L 127.0456 23.5695 L 121.8434 23.5695 L 120.7186 26.3857 L 117.9594 26.3857 L 123.232 13.739 ZM 126.0789 21.1296 L 124.4445 17.0579 L 122.8101 21.1296 L 126.0789 21.1296 Z" fill="#432918"/>				<path d="M 38.6477 41.9542 L 40.2469 39.9989 C 41.3541 40.932 42.5141 41.524 43.9203 41.524 C 45.0275 41.524 45.6952 41.0754 45.6952 40.3401 L 45.6952 40.3037 C 45.6952 39.6046 45.2737 39.246 43.217 38.7078 C 40.7392 38.0615 39.1396 37.3624 39.1396 34.8685 L 39.1396 34.8334 C 39.1396 32.5544 40.9326 31.0476 43.4456 31.0476 C 45.2384 31.0476 46.7676 31.6219 48.0152 32.6442 L 46.609 34.7251 C 45.5195 33.9541 44.4475 33.4874 43.4103 33.4874 C 42.3736 33.4874 41.8288 33.9717 41.8288 34.5817 L 41.8288 34.6176 C 41.8288 35.443 42.356 35.7118 44.4827 36.2683 C 46.9781 36.9318 48.3843 37.8466 48.3843 40.0353 L 48.3843 40.0713 C 48.3843 42.5643 46.5214 43.9637 43.8675 43.9637 C 42.0045 43.9637 40.124 43.2997 38.6477 41.9542 Z" fill="#432918"/>				<path d="M 50.1941 37.5414 L 50.1941 37.5059 C 50.1941 33.936 52.9533 31.0121 56.7496 31.0121 C 60.5459 31.0121 63.2699 33.9001 63.2699 37.4702 L 63.2699 37.5059 C 63.2699 41.0754 60.5107 44 56.7144 44 C 52.918 44 50.1941 41.111 50.1941 37.5414 ZM 60.4403 37.5414 L 60.4403 37.5059 C 60.4403 35.353 58.8936 33.5594 56.7144 33.5594 C 54.5352 33.5594 53.0237 35.3167 53.0237 37.4702 L 53.0237 37.5059 C 53.0237 39.6586 54.57 41.4521 56.7496 41.4521 C 58.9288 41.4521 60.4403 39.6945 60.4403 37.5414 Z" fill="#432918"/>				<path d="M 65.1317 37.5414 L 65.1317 37.5059 C 65.1317 33.936 67.7682 31.0121 71.5469 31.0121 C 73.8666 31.0121 75.2552 31.8009 76.3976 32.9495 L 74.6751 34.9763 C 73.7261 34.097 72.7594 33.5594 71.5293 33.5594 C 69.4554 33.5594 67.9615 35.3167 67.9615 37.4702 L 67.9615 37.5059 C 67.9615 39.6586 69.4202 41.4521 71.5293 41.4521 C 72.9351 41.4521 73.7965 40.8785 74.7632 39.9813 L 76.4853 41.7573 C 75.22 43.1384 73.8141 44 71.4413 44 C 67.821 44 65.1317 41.1475 65.1317 37.5414 Z" fill="#432918"/>				<path d="M 78.7694 31.2269 L 81.4761 31.2269 L 81.4761 43.7843 L 78.7694 43.7843 L 78.7694 31.2269 Z" fill="#432918"/>				<path d="M 88.7698 31.1371 L 91.2652 31.1371 L 96.5378 43.7843 L 93.7082 43.7843 L 92.5833 40.9675 L 87.3812 40.9675 L 86.2564 43.7843 L 83.4972 43.7843 L 88.7698 31.1371 ZM 91.6167 38.5281 L 89.9823 34.4567 L 88.3479 38.5281 L 91.6167 38.5281 Z" fill="#432918"/>				<path d="M 98.4352 31.2269 L 101.142 31.2269 L 101.142 41.2728 L 107.2756 41.2728 L 107.2756 43.7843 L 98.4352 43.7843 L 98.4352 31.2269 Z" fill="#432918"/>			</g>			<path d="M 3.2245 19.2896 L 3.2245 43.7964 L 0 41.0126 L 0 19.2896 L 3.2245 19.2896 Z" fill="#f39200"/>			<path d="M 9.4466 3.5049 L 9.4466 26.3779 L 6.2221 26.3779 L 6.2221 3.5049 L 9.4466 3.5049 Z" fill="#f39200"/>			<path d="M 21.8909 3.5049 L 21.8909 26.3779 L 18.6662 26.3779 L 18.6662 3.5049 L 21.8909 3.5049 Z" fill="#f39200"/>			<path d="M 28.113 9.8538 L 28.113 26.3779 L 24.8883 26.3779 L 24.8883 9.8538 L 28.113 9.8538 Z" fill="#f39200"/>			<path d="M 15.6689 0 L 15.6689 26.3779 L 12.4441 26.3779 L 12.4441 0 L 15.6689 0 Z" fill="#f39200"/>		</g>	</g></svg>