<?xml version="1.0" standalone="no"?><!-- Generator: Adobe Fireworks CS6, Export SVG Extension by Aaron Beall (http://fireworks.abeall.com) . Version: 0.6.1  --><!DOCTYPE svg PUBLIC "-//W3C//DTD SVG 1.1//EN" "http://www.w3.org/Graphics/SVG/1.1/DTD/svg11.dtd"><svg id="Untitled-Page%201" viewBox="0 0 19 20" style="background-color:#ffffff00" version="1.1"	xmlns="http://www.w3.org/2000/svg" xmlns:xlink="http://www.w3.org/1999/xlink" xml:space="preserve"	x="0px" y="0px" width="19px" height="20px">	<g id="Layer%201">		<g>			<path d="M 17.7084 7.9984 L 16.1385 7.9984 L 16.1385 6.2566 C 16.1385 2.8042 13.1844 0 9.536 0 C 5.8897 0 2.9335 2.8042 2.9335 6.2566 L 2.9335 7.9984 L 1.2999 7.9984 C 0.5809 7.9984 0 8.5569 0 9.2327 L 0 18.7776 C 0 19.4492 0.5809 20 1.2999 20 L 17.7084 20 C 18.4191 20 19 19.4492 19 18.7776 L 19 9.2327 C 19 8.5569 18.4191 7.9984 17.7084 7.9984 ZM 5.5766 6.116 C 5.5766 4.0461 7.3483 2.3706 9.536 2.3706 C 11.7177 2.3706 13.4914 4.0461 13.4914 6.116 L 13.4914 7.9984 L 5.5766 7.9984 L 5.5766 6.116 ZM 10.9431 17.3364 L 8.0631 17.3364 L 8.5101 13.9426 C 8.0673 13.6458 7.7603 13.1771 7.7603 12.6147 C 7.7603 11.7047 8.539 10.9626 9.501 10.9626 C 10.4692 10.9626 11.2459 11.7047 11.2459 12.6147 C 11.2459 13.1771 10.9369 13.6458 10.4899 13.9426 L 10.9431 17.3364 Z" fill="#ffffff"/>		</g>	</g></svg>