<?xml version="1.0" standalone="no"?><!-- Generator: Adobe Fireworks CS6, Export SVG Extension by Aaron Beall (http://fireworks.abeall.com) . Version: 0.6.1  --><!DOCTYPE svg PUBLIC "-//W3C//DTD SVG 1.1//EN" "http://www.w3.org/Graphics/SVG/1.1/DTD/svg11.dtd"><svg id="Untitled-Page%201" viewBox="0 0 19 21" style="background-color:#ffffff00" version="1.1"	xmlns="http://www.w3.org/2000/svg" xmlns:xlink="http://www.w3.org/1999/xlink" xml:space="preserve"	x="0px" y="0px" width="19px" height="21px">	<g id="Layer%201">		<g>			<path d="M 7.7152 13.9579 L 2.2581 13.9579 L 2.2581 2.2039 L 13.5486 2.2039 L 13.5486 7.418 C 13.8573 7.3757 14.169 7.3463 14.4895 7.3463 C 14.9408 7.3463 15.3804 7.3915 15.8067 7.4739 L 15.8067 2.2039 C 15.8067 0.9872 14.7953 0 13.5486 0 L 2.2581 0 C 1.0114 0 0 0.9872 0 2.2039 L 0 13.9579 C 0 15.1746 1.0114 16.1618 2.2581 16.1618 L 8.1107 16.1618 C 7.8593 15.4716 7.7152 14.7313 7.7152 13.9579 Z" fill="#432718"/>			<path d="M 11.2905 4.4078 L 4.5162 4.4078 L 4.5162 5.877 L 11.2905 5.877 L 11.2905 4.4078 Z" fill="#432718"/>			<path d="M 11.2905 8.1326 L 11.2905 7.3463 L 4.5162 7.3463 L 4.5162 8.8156 L 10.2408 8.8156 C 10.568 8.558 10.9186 8.3277 11.2905 8.1326 Z" fill="#432718"/>			<path d="M 4.5162 11.754 L 8.2797 11.754 L 8.2797 10.2848 L 4.5162 10.2848 L 4.5162 11.754 Z" fill="#432718"/>			<path d="M 17.6774 10.8458 C 15.914 9.1248 13.0539 9.1248 11.2905 10.8458 C 9.8042 12.2964 9.5866 14.5017 10.6054 16.1919 L 7.2764 19.4404 L 8.8736 21 L 12.2035 17.7487 C 13.9338 18.743 16.1919 18.5292 17.6774 17.0801 C 19.4409 15.3583 19.4409 12.5676 17.6774 10.8458 ZM 14.4843 16.1668 C 13.2392 16.1668 12.2255 15.1782 12.2255 13.9622 C 12.2255 12.7469 13.2392 11.7584 14.4836 11.759 C 15.7288 11.759 16.7417 12.7476 16.7417 13.9636 C 16.7417 15.1775 15.7288 16.1661 14.4843 16.1668 Z" fill="#432718"/>		</g>	</g></svg>