<?xml version="1.0" encoding="utf-8"?>
<!-- Generator: Adobe Illustrator 16.0.0, SVG Export Plug-In . SVG Version: 6.00 Build 0)  -->
<!DOCTYPE svg PUBLIC "-//W3C//DTD SVG 1.1//EN" "http://www.w3.org/Graphics/SVG/1.1/DTD/svg11.dtd">
<svg version="1.1" id="Camada_1" xmlns="http://www.w3.org/2000/svg" xmlns:xlink="http://www.w3.org/1999/xlink" x="0px" y="0px"
	 width="1200px" height="91.496px" viewBox="0 0 1200 91.496" enable-background="new 0 0 1200 91.496" xml:space="preserve">
<rect x="339.425" y="17.404" fill="#9D8C81" width="49.755" height="64.633"/>
<rect x="10.62" y="17.404" fill="#F39200" width="53.569" height="64.633"/>
<polygon fill="#9D8C81" points="242.139,82.038 63.037,82.038 63.037,17.402 242.139,17.402 265.8,49.906 "/>
<g>
	<path fill="#FFFFFF" d="M76.909,31.512h7.061c1.963,0,3.486,0.551,4.501,1.566c0.86,0.86,1.324,2.074,1.324,3.53v0.044
		c0,2.494-1.346,4.06-3.31,4.788l3.773,5.516h-3.972l-3.31-4.942h-2.669v4.942h-3.398V31.512z M83.749,39.013
		c1.655,0,2.604-0.882,2.604-2.184v-0.044c0-1.457-1.015-2.207-2.67-2.207h-3.375v4.435H83.749z"/>
	<path fill="#FFFFFF" d="M92.857,31.512h11.65v3.022h-8.274v3.133h7.281v3.023h-7.281v3.244h8.385v3.022h-11.76V31.512z"/>
	<path fill="#FFFFFF" d="M121.425,47.419l-1.699-1.521c-1.302,0.838-2.868,1.323-4.589,1.323c-4.766,0-8.186-3.552-8.186-7.943
		v-0.044c0-4.391,3.464-7.987,8.23-7.987c4.766,0,8.186,3.553,8.186,7.943v0.044c0,1.633-0.507,3.155-1.368,4.436l1.588,1.346
		L121.425,47.419z M117.211,43.669l-2.515-2.141l2.162-2.427l2.538,2.295c0.265-0.618,0.419-1.346,0.419-2.118v-0.044
		c0-2.647-1.941-4.854-4.677-4.854c-2.736,0-4.634,2.163-4.634,4.81v0.044c0,2.648,1.942,4.854,4.678,4.854
		C115.931,44.088,116.615,43.956,117.211,43.669z"/>
	<path fill="#FFFFFF" d="M126.142,40.337v-8.826h3.398v8.737c0,2.515,1.257,3.817,3.332,3.817c2.074,0,3.332-1.257,3.332-3.707
		v-8.848h3.398v8.715c0,4.678-2.625,6.973-6.774,6.973C128.679,47.2,126.142,44.882,126.142,40.337z"/>
	<path fill="#FFFFFF" d="M143.214,31.512h3.398v15.445h-3.398V31.512z"/>
	<path fill="#FFFFFF" d="M149.412,44.706l2.008-2.405c1.39,1.148,2.846,1.875,4.611,1.875c1.39,0,2.229-0.552,2.229-1.456v-0.044
		c0-0.861-0.53-1.302-3.111-1.964c-3.111-0.794-5.119-1.655-5.119-4.722v-0.044c0-2.802,2.25-4.655,5.406-4.655
		c2.25,0,4.17,0.706,5.737,1.964l-1.765,2.559c-1.368-0.949-2.714-1.522-4.016-1.522c-1.302,0-1.986,0.596-1.986,1.346v0.044
		c0,1.015,0.662,1.346,3.332,2.03c3.133,0.816,4.898,1.942,4.898,4.634v0.044c0,3.067-2.339,4.788-5.671,4.788
		C153.626,47.177,151.265,46.361,149.412,44.706z"/>
	<path fill="#FFFFFF" d="M164.743,31.512h3.398v15.445h-3.398V31.512z"/>
	<path fill="#FFFFFF" d="M175.596,34.645h-4.7v-3.133h12.797v3.133h-4.7v12.312h-3.398V34.645z"/>
	<path fill="#FFFFFF" d="M184.947,39.278v-0.044c0-4.391,3.464-7.987,8.23-7.987c4.766,0,8.186,3.553,8.186,7.943v0.044
		c0,4.391-3.464,7.987-8.229,7.987C188.367,47.221,184.947,43.669,184.947,39.278z M197.811,39.278v-0.044
		c0-2.647-1.941-4.854-4.677-4.854c-2.736,0-4.634,2.163-4.634,4.81v0.044c0,2.648,1.942,4.854,4.678,4.854
		S197.811,41.926,197.811,39.278z"/>
	<path fill="#FFFFFF" d="M203.211,44.706l2.008-2.405c1.39,1.148,2.846,1.875,4.611,1.875c1.39,0,2.229-0.552,2.229-1.456v-0.044
		c0-0.861-0.53-1.302-3.111-1.964c-3.111-0.794-5.119-1.655-5.119-4.722v-0.044c0-2.802,2.25-4.655,5.406-4.655
		c2.25,0,4.17,0.706,5.737,1.964l-1.765,2.559c-1.368-0.949-2.714-1.522-4.016-1.522c-1.302,0-1.986,0.596-1.986,1.346v0.044
		c0,1.015,0.662,1.346,3.332,2.03c3.133,0.816,4.898,1.942,4.898,4.634v0.044c0,3.067-2.339,4.788-5.671,4.788
		C207.425,47.177,205.064,46.361,203.211,44.706z"/>
	<path fill="#FFFFFF" d="M76.909,57.981h3.663l4.06,6.531l4.06-6.531h3.663v15.445h-3.376V63.343l-4.347,6.597h-0.088l-4.303-6.531
		v10.018h-3.332V57.981z"/>
	<path fill="#FFFFFF" d="M96.209,57.981h3.398v15.445h-3.398V57.981z M99.21,53.304l2.89,1.257l-3,2.207h-2.56L99.21,53.304z"/>
	<path fill="#FFFFFF" d="M103.467,57.981h3.133l7.237,9.51v-9.51h3.354v15.445h-2.89l-7.48-9.818v9.818h-3.354V57.981z"/>
	<path fill="#FFFFFF" d="M121.046,57.981h3.398v15.445h-3.398V57.981z"/>
	<path fill="#FFFFFF" d="M128.304,57.981h3.663l4.06,6.531l4.06-6.531h3.663v15.445h-3.376V63.343l-4.347,6.597h-0.088l-4.303-6.531
		v10.018h-3.332V57.981z"/>
	<path fill="#FFFFFF" d="M146.766,65.748v-0.044c0-4.391,3.464-7.987,8.23-7.987c4.766,0,8.186,3.553,8.186,7.943v0.044
		c0,4.391-3.464,7.987-8.229,7.987C150.186,73.691,146.766,70.139,146.766,65.748z M159.629,65.748v-0.044
		c0-2.647-1.941-4.854-4.677-4.854c-2.736,0-4.634,2.162-4.634,4.81v0.044c0,2.647,1.942,4.854,4.678,4.854
		S159.629,68.396,159.629,65.748z"/>
	<path fill="#FFFFFF" d="M165.029,71.175l2.008-2.404c1.39,1.147,2.846,1.875,4.611,1.875c1.39,0,2.229-0.552,2.229-1.456v-0.044
		c0-0.86-0.53-1.302-3.111-1.964c-3.111-0.794-5.119-1.655-5.119-4.722v-0.044c0-2.803,2.25-4.656,5.406-4.656
		c2.25,0,4.17,0.706,5.737,1.964l-1.765,2.56c-1.368-0.948-2.714-1.522-4.016-1.522c-1.302,0-1.986,0.596-1.986,1.346v0.045
		c0,1.015,0.662,1.346,3.332,2.029c3.133,0.816,4.898,1.941,4.898,4.634v0.044c0,3.067-2.339,4.788-5.671,4.788
		C169.244,73.647,166.882,72.831,165.029,71.175z"/>
</g>
<g>
	<path fill="#FFFFFF" d="M30.64,43.614l-4.691,1.153l-1.23-4.845l7.729-2.307h4.037v27.109H30.64V43.614z"/>
	<path fill="#FFFFFF" d="M42.404,58.572h6.229v6.152h-6.229V58.572z"/>
</g>
<rect x="285.854" y="17.404" fill="#F39200" width="53.572" height="64.633"/>
<polygon fill="#9D8C81" points="561.094,82.038 381.994,82.038 381.994,17.402 561.094,17.402 584.753,49.906 "/>
<g>
	<path fill="#FFFFFF" d="M352.146,31.512h6.31c3.685,0,5.914,2.184,5.914,5.339v0.044c0,3.575-2.78,5.428-6.244,5.428h-2.582v4.633
		h-3.398V31.512z M358.235,39.3c1.699,0,2.692-1.015,2.692-2.339v-0.044c0-1.522-1.059-2.339-2.758-2.339h-2.625V39.3H358.235z"/>
	<path fill="#FFFFFF" d="M366.88,31.512h7.061c1.963,0,3.486,0.551,4.501,1.566c0.86,0.86,1.324,2.074,1.324,3.53v0.044
		c0,2.494-1.346,4.06-3.31,4.788l3.773,5.516h-3.972l-3.31-4.942h-2.669v4.942h-3.398V31.512z M373.72,39.013
		c1.655,0,2.604-0.882,2.604-2.184v-0.044c0-1.457-1.015-2.207-2.67-2.207h-3.375v4.435H373.72z"/>
	<path fill="#FFFFFF" d="M382.828,31.512h11.65v3.022h-8.274v3.133h7.281v3.023h-7.281v3.244h8.385v3.022h-11.76V31.512z"/>
	<path fill="#FFFFFF" d="M396.547,44.706l2.008-2.405c1.39,1.148,2.846,1.875,4.611,1.875c1.39,0,2.229-0.552,2.229-1.456v-0.044
		c0-0.861-0.53-1.302-3.111-1.964c-3.111-0.794-5.119-1.655-5.119-4.722v-0.044c0-2.802,2.25-4.655,5.406-4.655
		c2.25,0,4.17,0.706,5.737,1.964l-1.765,2.559c-1.368-0.949-2.714-1.522-4.016-1.522s-1.986,0.596-1.986,1.346v0.044
		c0,1.015,0.662,1.346,3.332,2.03c3.133,0.816,4.898,1.942,4.898,4.634v0.044c0,3.067-2.339,4.788-5.671,4.788
		C400.762,47.177,398.401,46.361,396.547,44.706z"/>
	<path fill="#FFFFFF" d="M411.723,31.512h11.65v3.022h-8.274v3.133h7.281v3.023h-7.281v3.244h8.385v3.022h-11.76V31.512z"/>
	<path fill="#FFFFFF" d="M426.502,31.512h3.133l7.237,9.51v-9.51h3.354v15.445h-2.89l-7.48-9.818v9.818h-3.354V31.512z"/>
	<path fill="#FFFFFF" d="M447.524,34.645h-4.7v-3.133h12.797v3.133h-4.7v12.312h-3.398V34.645z"/>
	<path fill="#FFFFFF" d="M461.531,31.401h3.133l6.62,15.555h-3.553l-1.412-3.464h-6.531l-1.412,3.464h-3.464L461.531,31.401z
		 M465.105,40.492l-2.052-5.009l-2.052,5.009H465.105z"/>
	<path fill="#FFFFFF" d="M471.984,39.278v-0.044c0-4.391,3.31-7.987,8.053-7.987c2.913,0,4.656,0.971,6.09,2.383l-2.162,2.493
		c-1.191-1.081-2.405-1.743-3.95-1.743c-2.604,0-4.479,2.163-4.479,4.81v0.044c0,2.648,1.832,4.854,4.479,4.854
		c1.765,0,2.846-0.706,4.06-1.81l2.162,2.185c-1.588,1.699-3.354,2.758-6.333,2.758C475.36,47.221,471.984,43.713,471.984,39.278z"
		/>
	<path fill="#FFFFFF" d="M489.102,31.512h3.398v15.445h-3.398V31.512z"/>
	<path fill="#FFFFFF" d="M495.674,39.278v-0.044c0-4.391,3.464-7.987,8.23-7.987c4.766,0,8.186,3.553,8.186,7.943v0.044
		c0,4.391-3.464,7.987-8.23,7.987C499.094,47.221,495.674,43.669,495.674,39.278z M508.538,39.278v-0.044
		c0-2.647-1.941-4.854-4.678-4.854c-2.736,0-4.633,2.163-4.633,4.81v0.044c0,2.648,1.942,4.854,4.678,4.854
		S508.538,41.926,508.538,39.278z M505.184,26.613l2.89,1.258l-3,2.207h-2.56L505.184,26.613z"/>
	<path fill="#FFFFFF" d="M515.107,31.512h3.133l7.237,9.51v-9.51h3.354v15.445h-2.89l-7.48-9.818v9.818h-3.354V31.512z"/>
	<path fill="#FFFFFF" d="M352.146,57.981h6.023c4.854,0,8.208,3.332,8.208,7.679v0.044c0,4.347-3.354,7.723-8.208,7.723h-6.023
		V57.981z M355.543,61.048v9.311h2.625c2.78,0,4.656-1.875,4.656-4.611v-0.044c0-2.735-1.875-4.655-4.656-4.655H355.543z"/>
	<path fill="#FFFFFF" d="M369.395,57.981h11.65v3.023h-8.274v3.133h7.281v3.022h-7.281v3.244h8.385v3.022h-11.76V57.981z"/>
	<path fill="#FFFFFF" d="M390.791,57.981h3.398v12.356h7.7v3.089h-11.098V57.981z"/>
	<path fill="#FFFFFF" d="M409.739,57.871h3.133l6.62,15.556h-3.553l-1.412-3.464h-6.531l-1.412,3.464h-3.464L409.739,57.871z
		 M413.313,66.961l-2.052-5.009l-2.052,5.009H413.313z"/>
	<path fill="#FFFFFF" d="M428.486,57.981h11.65v3.023h-8.274v3.133h7.281v3.022h-7.281v3.244h8.385v3.022h-11.76V57.981z"/>
	<path fill="#FFFFFF" d="M443.265,57.981h3.663l4.06,6.531l4.06-6.531h3.663v15.445h-3.376V63.343l-4.347,6.597h-0.088l-4.303-6.531
		v10.018h-3.332V57.981z"/>
	<path fill="#FFFFFF" d="M462.411,57.981h6.31c3.685,0,5.914,2.185,5.914,5.34v0.044c0,3.574-2.78,5.428-6.244,5.428h-2.582v4.634
		h-3.398V57.981z M468.5,65.77c1.699,0,2.692-1.015,2.692-2.339v-0.044c0-1.522-1.059-2.339-2.758-2.339h-2.625v4.722H468.5z"/>
	<path fill="#FFFFFF" d="M477.146,57.981h7.061c1.963,0,3.486,0.552,4.501,1.567c0.86,0.86,1.324,2.073,1.324,3.53v0.044
		c0,2.493-1.346,4.06-3.31,4.788l3.773,5.516h-3.972l-3.31-4.942h-2.669v4.942h-3.398V57.981z M483.986,65.483
		c1.655,0,2.604-0.882,2.604-2.185v-0.044c0-1.456-1.015-2.206-2.67-2.206h-3.375v4.435H483.986z"/>
	<path fill="#FFFFFF" d="M493.093,57.981h11.65v3.023h-8.274v3.133h7.281v3.022h-7.281v3.244h8.385v3.022h-11.76V57.981z"/>
	<path fill="#FFFFFF" d="M506.813,71.175l2.008-2.404c1.39,1.147,2.846,1.875,4.611,1.875c1.39,0,2.229-0.552,2.229-1.456v-0.044
		c0-0.86-0.53-1.302-3.111-1.964c-3.111-0.794-5.119-1.655-5.119-4.722v-0.044c0-2.803,2.25-4.656,5.406-4.656
		c2.25,0,4.17,0.706,5.737,1.964l-1.765,2.56c-1.368-0.948-2.714-1.522-4.016-1.522s-1.986,0.596-1.986,1.346v0.045
		c0,1.015,0.662,1.346,3.332,2.029c3.133,0.816,4.898,1.941,4.898,4.634v0.044c0,3.067-2.339,4.788-5.671,4.788
		C511.027,73.647,508.667,72.831,506.813,71.175z"/>
	<path fill="#FFFFFF" d="M526.954,57.871h3.133l6.62,15.556h-3.553l-1.412-3.464h-6.531l-1.412,3.464h-3.464L526.954,57.871z
		 M530.528,66.961l-2.052-5.009l-2.052,5.009H530.528z"/>
</g>
<g>
	<path fill="#FFFFFF" d="M300.917,60.033l8.959-7.344c3.346-2.769,4.653-4.23,4.653-6.46c0-2.269-1.5-3.5-3.614-3.5
		c-2.077,0-3.5,1.154-5.499,3.615l-4.153-3.346c2.653-3.614,5.229-5.575,10.036-5.575c5.576,0,9.267,3.268,9.267,8.306v0.077
		c0,4.498-2.307,6.729-7.075,10.42l-4.383,3.384h11.728v5.114h-19.918V60.033z"/>
	<path fill="#FFFFFF" d="M325.367,58.572h6.229v6.152h-6.229V58.572z"/>
</g>
<rect x="658.073" y="14.639" fill="#9D8C81" width="114.002" height="64.631"/>
<rect x="604.498" y="14.639" fill="#F39200" width="53.572" height="64.631"/>
<polygon fill="#9D8C81" points="888.482,79.27 709.38,79.27 709.38,14.637 888.482,14.637 912.142,47.14 "/>
<g>
	<path fill="#FFFFFF" d="M670.545,37.572v-8.826h3.398v8.737c0,2.515,1.258,3.817,3.33,3.817c2.074,0,3.332-1.257,3.332-3.707
		v-8.848h3.398v8.715c0,4.678-2.625,6.973-6.773,6.973S670.545,42.117,670.545,37.572z"/>
	<path fill="#FFFFFF" d="M687.463,28.746h3.133l7.238,9.51v-9.51h3.354v15.445h-2.891l-7.48-9.818v9.818h-3.354V28.746z"/>
	<path fill="#FFFFFF" d="M710.184,28.636h3.135l6.619,15.555h-3.553l-1.412-3.464h-6.531l-1.412,3.464h-3.465L710.184,28.636z
		 M713.76,37.726l-2.053-5.009l-2.053,5.009H713.76z"/>
	<path fill="#FFFFFF" d="M727.607,28.746h3.75l4.039,10.877l4.037-10.877h3.662l-6.244,15.555h-3L727.607,28.746z"/>
	<path fill="#FFFFFF" d="M745.475,28.746h11.65v3.022h-8.273v3.133h7.281v3.023h-7.281v3.243h8.383v3.023h-11.76V28.746z"/>
	<path fill="#FFFFFF" d="M759.789,41.609l8.496-9.885h-8.23v-2.979h12.6v2.582l-8.496,9.885h8.496v2.979h-12.865V41.609z"/>
	<path fill="#FFFFFF" d="M669.729,68.41l2.008-2.404c1.391,1.147,2.846,1.875,4.611,1.875c1.391,0,2.229-0.552,2.229-1.456V66.38
		c0-0.86-0.529-1.302-3.111-1.964c-3.111-0.794-5.119-1.655-5.119-4.722v-0.044c0-2.803,2.252-4.656,5.406-4.656
		c2.25,0,4.17,0.706,5.736,1.964l-1.766,2.56c-1.367-0.948-2.713-1.522-4.016-1.522c-1.301,0-1.984,0.596-1.984,1.346v0.045
		c0,1.015,0.662,1.346,3.33,2.029c3.135,0.816,4.898,1.941,4.898,4.634v0.044c0,3.067-2.338,4.788-5.67,4.788
		C673.943,70.881,671.582,70.065,669.729,68.41z"/>
	<path fill="#FFFFFF" d="M684.904,55.215h11.65v3.023h-8.273v3.133h7.281v3.022h-7.281v3.244h8.383v3.022h-11.76V55.215z"/>
	<path fill="#FFFFFF" d="M699.684,55.215h3.396v12.356h7.701v3.089h-11.098V55.215z"/>
	<path fill="#FFFFFF" d="M713.336,55.215h11.65v3.023h-8.273v3.133h7.281v3.022h-7.281v3.244h8.383v3.022h-11.76V55.215z"/>
	<path fill="#FFFFFF" d="M727.432,62.982v-0.044c0-4.391,3.311-7.987,8.053-7.987c2.914,0,4.656,0.971,6.09,2.383l-2.162,2.493
		c-1.191-1.081-2.404-1.742-3.949-1.742c-2.604,0-4.479,2.162-4.479,4.81v0.044c0,2.647,1.83,4.854,4.479,4.854
		c1.766,0,2.846-0.706,4.061-1.81l2.162,2.185c-1.59,1.699-3.354,2.758-6.332,2.758C730.807,70.925,727.432,67.417,727.432,62.982z"
		/>
	<path fill="#FFFFFF" d="M743.268,62.982v-0.044c0-4.391,3.311-7.987,8.055-7.987c2.912,0,4.654,0.971,6.09,2.383l-2.162,2.493
		c-1.191-1.081-2.406-1.742-3.949-1.742c-2.604,0-4.48,2.162-4.48,4.81v0.044c0,2.647,1.832,4.854,4.48,4.854
		c1.764,0,2.846-0.706,4.059-1.81l2.162,2.185c-1.588,1.699-3.354,2.758-6.332,2.758C746.645,70.925,743.268,67.417,743.268,62.982z
		"/>
	<path fill="#FFFFFF" d="M760.385,55.215h3.398v15.445h-3.398V55.215z"/>
	<path fill="#FFFFFF" d="M766.959,62.982v-0.044c0-4.391,3.465-7.987,8.23-7.987s8.186,3.553,8.186,7.943v0.044
		c0,4.391-3.465,7.987-8.23,7.987S766.959,67.374,766.959,62.982z M779.822,62.982v-0.044c0-2.647-1.941-4.854-4.678-4.854
		s-4.633,2.162-4.633,4.81v0.044c0,2.647,1.941,4.854,4.678,4.854S779.822,65.63,779.822,62.982z"/>
	<path fill="#FFFFFF" d="M786.393,55.215h3.133l7.236,9.51v-9.51h3.354v15.445h-2.891l-7.479-9.818v9.818h-3.354V55.215z"/>
	<path fill="#FFFFFF" d="M809.111,55.105h3.135l6.619,15.556h-3.553l-1.412-3.464h-6.531l-1.412,3.464h-3.465L809.111,55.105z
		 M812.688,64.196l-2.053-5.009l-2.053,5.009H812.688z"/>
	<path fill="#FFFFFF" d="M821.242,55.215h6.023c4.855,0,8.209,3.332,8.209,7.679v0.044c0,4.347-3.354,7.723-8.209,7.723h-6.023
		V55.215z M824.641,58.283v9.311h2.625c2.781,0,4.656-1.875,4.656-4.611v-0.044c0-2.735-1.875-4.655-4.656-4.655H824.641z"/>
	<path fill="#FFFFFF" d="M837.807,62.982v-0.044c0-4.391,3.465-7.987,8.23-7.987s8.186,3.553,8.186,7.943v0.044
		c0,4.391-3.463,7.987-8.229,7.987C841.227,70.925,837.807,67.374,837.807,62.982z M850.672,62.982v-0.044
		c0-2.647-1.943-4.854-4.678-4.854c-2.736,0-4.635,2.162-4.635,4.81v0.044c0,2.647,1.941,4.854,4.678,4.854
		S850.672,65.63,850.672,62.982z"/>
	<path fill="#FFFFFF" d="M856.07,68.41l2.008-2.404c1.391,1.147,2.848,1.875,4.611,1.875c1.391,0,2.229-0.552,2.229-1.456V66.38
		c0-0.86-0.529-1.302-3.109-1.964c-3.111-0.794-5.119-1.655-5.119-4.722v-0.044c0-2.803,2.25-4.656,5.404-4.656
		c2.252,0,4.172,0.706,5.738,1.964l-1.766,2.56c-1.367-0.948-2.715-1.522-4.016-1.522c-1.303,0-1.986,0.596-1.986,1.346v0.045
		c0,1.015,0.662,1.346,3.332,2.029c3.133,0.816,4.898,1.941,4.898,4.634v0.044c0,3.067-2.34,4.788-5.67,4.788
		C860.285,70.881,857.924,70.065,856.07,68.41z"/>
</g>
<g>
	<path fill="#FFFFFF" d="M619.135,57.766l4.076-3.884c1.846,2.076,3.77,3.23,6.498,3.23c2.23,0,3.807-1.27,3.807-3.269v-0.077
		c0-2.191-1.961-3.422-5.268-3.422h-2.461l-0.922-3.769l6.422-6.46h-10.574v-5.076H638.9v4.46L632.094,46
		c3.652,0.615,7.229,2.538,7.229,7.537v0.077c0,5.075-3.691,8.806-9.689,8.806C624.787,62.419,621.443,60.497,619.135,57.766z"/>
	<path fill="#FFFFFF" d="M643.932,55.805h6.23v6.152h-6.23V55.805z"/>
</g>
<rect x="985.802" y="17.407" fill="#9D8C81" width="202.259" height="64.636"/>
<rect x="932.23" y="17.407" fill="#F39200" width="53.571" height="64.636"/>
<g>
	<path fill="#FFFFFF" d="M998.291,40.339v-8.826h3.398v8.737c0,2.515,1.258,3.817,3.33,3.817c2.074,0,3.332-1.257,3.332-3.707
		v-8.848h3.398v8.715c0,4.678-2.625,6.973-6.773,6.973S998.291,44.884,998.291,40.339z"/>
	<path fill="#FFFFFF" d="M1015.209,31.514h3.133l7.238,9.51v-9.51h3.354v15.445h-2.891l-7.48-9.818v9.818h-3.354V31.514z"/>
	<path fill="#FFFFFF" d="M1037.93,31.403h3.135l6.619,15.555h-3.553l-1.412-3.464h-6.531l-1.412,3.464h-3.465L1037.93,31.403z
		 M1041.506,40.494l-2.053-5.009l-2.053,5.009H1041.506z"/>
	<path fill="#FFFFFF" d="M1055.354,31.514h3.75l4.039,10.877l4.037-10.877h3.662l-6.244,15.555h-3L1055.354,31.514z"/>
	<path fill="#FFFFFF" d="M1073.221,31.514h11.65v3.022h-8.273v3.133h7.281v3.023h-7.281v3.244h8.383v3.022h-11.76V31.514z"/>
	<path fill="#FFFFFF" d="M1087.535,44.377l8.496-9.885h-8.23v-2.979h12.6v2.582l-8.496,9.885h8.496v2.979h-12.865V44.377z"/>
	<path fill="#FFFFFF" d="M998.533,57.983h11.76v3.089h-8.361v3.288h7.369v3.089h-7.369v5.979h-3.398V57.983z"/>
	<path fill="#FFFFFF" d="M1013.158,57.983h3.396v15.445h-3.396V57.983z"/>
	<path fill="#FFFFFF" d="M1020.414,57.983h3.133l7.238,9.51v-9.51h3.354v15.445h-2.891l-7.48-9.818v9.818h-3.354V57.983z"/>
	<path fill="#FFFFFF" d="M1043.135,57.873h3.135l6.619,15.556h-3.553l-1.412-3.464h-6.531l-1.412,3.464h-3.465L1043.135,57.873z
		 M1046.711,66.963l-2.053-5.009l-2.053,5.009H1046.711z"/>
	<path fill="#FFFFFF" d="M1055.266,57.983h3.133l7.238,9.51v-9.51h3.354v15.445h-2.891l-7.48-9.818v9.818h-3.354V57.983z"/>
	<path fill="#FFFFFF" d="M1072.006,65.75v-0.044c0-4.391,3.311-7.987,8.055-7.987c2.912,0,4.654,0.971,6.09,2.383l-2.162,2.493
		c-1.191-1.081-2.406-1.742-3.949-1.742c-2.604,0-4.48,2.162-4.48,4.81v0.044c0,2.647,1.832,4.854,4.48,4.854
		c1.764,0,2.846-0.706,4.059-1.81l2.162,2.185c-1.588,1.699-3.354,2.758-6.332,2.758
		C1075.383,73.693,1072.006,70.185,1072.006,65.75z"/>
	<path fill="#FFFFFF" d="M1089.125,57.983h3.396v15.445h-3.396V57.983z"/>
	<path fill="#FFFFFF" d="M1101.676,57.873h3.135l6.619,15.556h-3.553l-1.412-3.464h-6.531l-1.412,3.464h-3.465L1101.676,57.873z
		 M1105.252,66.963l-2.053-5.009l-2.053,5.009H1105.252z"/>
	<path fill="#FFFFFF" d="M1113.807,57.983h6.023c4.854,0,8.207,3.332,8.207,7.679v0.044c0,4.347-3.354,7.723-8.207,7.723h-6.023
		V57.983z M1117.203,61.05v9.311h2.627c2.779,0,4.654-1.875,4.654-4.611v-0.044c0-2.735-1.875-4.655-4.654-4.655H1117.203z"/>
	<path fill="#FFFFFF" d="M1130.371,65.75v-0.044c0-4.391,3.465-7.987,8.23-7.987s8.186,3.553,8.186,7.943v0.044
		c0,4.391-3.463,7.987-8.229,7.987C1133.791,73.693,1130.371,70.141,1130.371,65.75z M1143.236,65.75v-0.044
		c0-2.647-1.943-4.854-4.678-4.854c-2.736,0-4.635,2.162-4.635,4.81v0.044c0,2.647,1.941,4.854,4.678,4.854
		S1143.236,68.398,1143.236,65.75z"/>
	<path fill="#FFFFFF" d="M1148.635,71.177l2.008-2.404c1.391,1.147,2.848,1.875,4.611,1.875c1.391,0,2.229-0.552,2.229-1.456v-0.044
		c0-0.86-0.529-1.302-3.109-1.964c-3.111-0.794-5.119-1.655-5.119-4.722v-0.044c0-2.803,2.25-4.656,5.404-4.656
		c2.252,0,4.172,0.706,5.738,1.964l-1.766,2.56c-1.367-0.948-2.715-1.522-4.016-1.522c-1.303,0-1.986,0.596-1.986,1.346v0.045
		c0,1.015,0.662,1.346,3.332,2.029c3.133,0.816,4.898,1.941,4.898,4.634v0.044c0,3.067-2.34,4.788-5.67,4.788
		C1152.85,73.649,1150.488,72.833,1148.635,71.177z"/>
</g>
<g>
	<path fill="#FFFFFF" d="M960.725,58.918h-13.15l-0.961-4.19l14.766-17.112h4.998v16.497h3.615v4.806h-3.615v5.807h-5.652V58.918z
		 M960.725,54.113V45.73l-7.152,8.383H960.725z"/>
	<path fill="#FFFFFF" d="M974.293,58.573h6.229v6.152h-6.229V58.573z"/>
</g>
</svg>
