<?xml version="1.0" standalone="no"?><!-- Generator: Adobe Fireworks CS6, Export SVG Extension by Aaron Beall (http://fireworks.abeall.com) . Version: 0.6.1  --><!DOCTYPE svg PUBLIC "-//W3C//DTD SVG 1.1//EN" "http://www.w3.org/Graphics/SVG/1.1/DTD/svg11.dtd"><svg id="Untitled-Page%201" viewBox="0 0 20 20" style="background-color:#ffffff00" version="1.1"	xmlns="http://www.w3.org/2000/svg" xmlns:xlink="http://www.w3.org/1999/xlink" xml:space="preserve"	x="0px" y="0px" width="20px" height="20px">	<g id="Layer%201">		<g>			<path d="M 11.4821 9.9102 C 10.9849 9.9264 10.6868 10.2676 10.554 10.5974 C 10.5042 10.7179 10.4919 10.887 10.4919 11.0561 L 10.4919 14.2159 L 8.6107 14.2159 C 8.6107 14.2159 8.6353 9.0886 8.6107 8.5578 L 10.4919 8.5578 L 10.4917 9.3593 L 10.4795 9.3785 L 10.4919 9.3785 L 10.4917 9.3593 C 10.6731 9.0796 10.9583 8.7139 11.4821 8.5342 C 11.6804 8.4662 11.9133 8.4249 12.1876 8.4249 C 13.4257 8.4249 14.3535 9.2338 14.3535 10.9717 L 14.3535 14.2159 L 12.4723 14.2159 L 12.4723 11.189 C 12.4723 10.4285 12.2002 9.9095 11.5193 9.9095 L 11.4821 9.9102 ZM 6.635 0.6326 C 2.7695 2.0027 0 5.6899 0 10.023 C 0 14.3561 2.7695 18.0431 6.635 19.4133 C 7.6765 19.7823 8.7974 19.9841 9.9651 19.9841 C 10.481 19.9841 10.9874 19.9449 11.4821 19.8693 C 16.2651 19.1387 19.9304 15.0079 19.9304 10.023 C 19.9304 5.0381 16.2651 0.907 11.4821 0.1766 C 10.9874 0.101 10.481 0.0619 9.9651 0.0619 C 8.7974 0.0619 7.6765 0.2634 6.635 0.6326 ZM 6.635 7.7855 L 6.6289 7.7855 L 6.6167 7.7856 C 5.9854 7.7856 5.5771 7.3506 5.5771 6.8078 C 5.5771 6.2546 5.995 5.8332 6.635 5.8303 L 6.6414 5.8303 C 7.2847 5.8303 7.6809 6.2528 7.6934 6.8078 C 7.6934 7.3489 7.2871 7.7827 6.635 7.7855 ZM 6.635 14.2159 L 5.6882 14.2159 L 5.6882 8.5578 L 6.635 8.5578 L 7.5696 8.5578 L 7.5696 14.2159 L 6.635 14.2159 Z" fill="#056293"/>		</g>	</g></svg>