<?xml version="1.0" standalone="no"?><!-- Generator: Adobe Fireworks CS6, Export SVG Extension by Aaron Beall (http://fireworks.abeall.com) . Version: 0.6.1  --><!DOCTYPE svg PUBLIC "-//W3C//DTD SVG 1.1//EN" "http://www.w3.org/Graphics/SVG/1.1/DTD/svg11.dtd"><svg id="Untitled-Page%201" viewBox="0 0 10 15" style="background-color:#ffffff00" version="1.1"	xmlns="http://www.w3.org/2000/svg" xmlns:xlink="http://www.w3.org/1999/xlink" xml:space="preserve"	x="0px" y="0px" width="10px" height="15px">	<g id="Layer%201">		<g>			<path d="M 5.0001 0 C 2.243 0 0 2.2258 0 4.9615 C 0 6.0635 0.709 7.86 2.1677 10.4537 C 3.1994 12.2882 4.2142 13.8178 4.2567 13.882 L 5.0001 15 L 5.7433 13.882 C 5.7859 13.8178 6.8008 12.2882 7.8323 10.4537 C 9.291 7.86 10 6.0635 10 4.9617 C 10 2.2258 7.757 0 5.0001 0 L 5.0001 0 ZM 5.0001 7.5 C 3.5686 7.5 2.4083 6.3486 2.4083 4.9281 C 2.4083 3.5077 3.5686 2.3562 5.0001 2.3562 C 6.4314 2.3562 7.5919 3.5077 7.5919 4.9281 C 7.5919 6.3486 6.4314 7.5 5.0001 7.5 L 5.0001 7.5 ZM 5.0001 7.5 L 5.0001 7.5 Z" fill="#f29200"/>		</g>	</g></svg>