<?xml version="1.0" standalone="no"?><!-- Generator: Adobe Fireworks CS6, Export SVG Extension by Aaron Beall (http://fireworks.abeall.com) . Version: 0.6.1  --><!DOCTYPE svg PUBLIC "-//W3C//DTD SVG 1.1//EN" "http://www.w3.org/Graphics/SVG/1.1/DTD/svg11.dtd"><svg id="Untitled-Page%201" viewBox="0 0 69 34" style="background-color:#ffffff00" version="1.1"	xmlns="http://www.w3.org/2000/svg" xmlns:xlink="http://www.w3.org/1999/xlink" xml:space="preserve"	x="0px" y="0px" width="69px" height="34px">	<g id="Layer%201">		<path d="M 0 14 L 0 34 L 69 34 L 69 14 C 69 6.2679 62.7321 0 55 0 L 14 0 C 6.2679 0 0 6.2679 0 14 Z" fill="#f29200"/>		<g>			<path d="M 35.1897 27.8722 C 35.1897 27.8722 35.1897 27.8764 26.386 27.8764 C 25.516 27.8764 24.7212 27.5296 24.1418 26.9711 C 23.5629 26.4127 23.2075 25.6458 23.2074 24.8076 C 23.2074 24.8076 23.2032 24.8076 23.2032 19.3025 C 23.2032 18.4639 23.5629 17.6977 24.1423 17.1393 C 24.7213 16.5811 25.5168 16.2383 26.3864 16.2383 L 35.1897 16.2383 L 39.9482 16.2383 C 39.9482 16.2383 39.9482 16.2343 41.614 16.2343 C 42.4841 16.2343 43.2787 16.5811 43.8582 17.1396 C 44.4371 17.6977 44.7925 18.4647 44.7926 19.3031 C 44.7926 19.3031 44.797 19.3031 44.797 24.8082 C 44.7968 25.6466 44.4371 26.413 43.8578 26.9714 C 43.2787 27.5296 42.4828 27.8722 41.6135 27.8722 L 39.9482 27.8722 L 35.1897 27.8722 ZM 26.3853 14.1147 C 24.9005 14.1149 23.5543 14.6973 22.5817 15.6348 C 21.6086 16.5727 21.0001 17.8714 21 19.3031 C 21 19.3031 21.0044 19.3031 21.0044 24.8088 C 21.0048 26.2399 21.6086 27.5378 22.5814 28.4753 C 23.5541 29.4135 24.9012 29.9997 26.3864 30 L 35.1897 30 L 39.9482 30 C 39.9482 30 39.9482 29.996 41.6149 29.996 C 43.0994 29.9955 44.4457 29.4135 45.4185 28.4759 C 46.3914 27.538 46.9996 26.2393 47 24.8076 C 47 24.8076 46.9957 24.8076 46.9957 19.3019 C 46.9952 17.8706 46.3914 16.573 45.4188 15.6351 C 44.4458 14.6973 43.0988 14.1107 41.6135 14.1105 L 41.1378 14.1105 L 41.1378 6 L 39.9482 6 L 35.1897 6 L 26.8623 6 L 26.8623 14.1105 C 26.8623 14.1105 26.8612 14.1147 26.3853 14.1147 ZM 39.9482 19.7617 L 38.7587 19.7617 L 38.7587 22.0554 L 39.9482 22.0554 L 41.1378 22.0554 L 41.1378 19.7617 L 39.9482 19.7617 ZM 35.1897 19.7617 L 34 19.7617 L 34 22.0554 L 35.1897 22.0554 L 36.3793 22.0554 L 36.3793 19.7617 L 35.1897 19.7617 Z" fill="#fdfdfd"/>		</g>	</g></svg>