<?xml version="1.0" standalone="no"?><!-- Generator: Adobe Fireworks CS6, Export SVG Extension by Aaron Beall (http://fireworks.abeall.com) . Version: 0.6.1  --><!DOCTYPE svg PUBLIC "-//W3C//DTD SVG 1.1//EN" "http://www.w3.org/Graphics/SVG/1.1/DTD/svg11.dtd"><svg id="Untitled-Page%201" viewBox="0 0 26 24" style="background-color:#ffffff00" version="1.1"	xmlns="http://www.w3.org/2000/svg" xmlns:xlink="http://www.w3.org/1999/xlink" xml:space="preserve"	x="0px" y="0px" width="26px" height="24px">	<g id="Layer%201">		<g>			<path d="M 14.1897 21.8722 C 14.1897 21.8722 14.1897 21.8764 5.386 21.8764 C 4.516 21.8764 3.7212 21.5296 3.1418 20.9711 C 2.5629 20.4127 2.2075 19.6458 2.2074 18.8076 C 2.2074 18.8076 2.2032 18.8076 2.2032 13.3025 C 2.2032 12.4639 2.5629 11.6977 3.1423 11.1393 C 3.7213 10.5811 4.5168 10.2383 5.3864 10.2383 L 14.1897 10.2383 L 18.9482 10.2383 C 18.9482 10.2383 18.9482 10.2343 20.614 10.2343 C 21.4841 10.2343 22.2787 10.5811 22.8582 11.1396 C 23.4371 11.6977 23.7925 12.4647 23.7926 13.3031 C 23.7926 13.3031 23.797 13.3031 23.797 18.8082 C 23.7968 19.6466 23.4371 20.413 22.8578 20.9714 C 22.2787 21.5296 21.4828 21.8722 20.6135 21.8722 L 18.9482 21.8722 L 14.1897 21.8722 ZM 5.3853 8.1147 C 3.9005 8.1149 2.5543 8.6973 1.5817 9.6348 C 0.6086 10.5727 0.0001 11.8714 0 13.3031 C 0 13.3031 0.0044 13.3031 0.0044 18.8088 C 0.0048 20.2399 0.6086 21.5378 1.5814 22.4753 C 2.5541 23.4135 3.9012 23.9997 5.3864 24 L 14.1897 24 L 18.9482 24 C 18.9482 24 18.9482 23.996 20.6149 23.996 C 22.0994 23.9955 23.4457 23.4135 24.4185 22.4759 C 25.3914 21.538 25.9996 20.2393 26 18.8076 C 26 18.8076 25.9957 18.8076 25.9957 13.3019 C 25.9952 11.8706 25.3914 10.573 24.4188 9.6351 C 23.4458 8.6973 22.0988 8.1107 20.6135 8.1105 L 20.1378 8.1105 L 20.1378 0 L 18.9482 0 L 14.1897 0 L 5.8623 0 L 5.8623 8.1105 C 5.8623 8.1105 5.8612 8.1147 5.3853 8.1147 ZM 18.9482 13.7617 L 17.7587 13.7617 L 17.7587 16.0554 L 18.9482 16.0554 L 20.1378 16.0554 L 20.1378 13.7617 L 18.9482 13.7617 ZM 14.1897 13.7617 L 13 13.7617 L 13 16.0554 L 14.1897 16.0554 L 15.3793 16.0554 L 15.3793 13.7617 L 14.1897 13.7617 Z" fill="#fdfdfd"/>		</g>	</g></svg>