<?xml version="1.0" standalone="no"?><!-- Generator: Adobe Fireworks CS6, Export SVG Extension by Aaron Beall (http://fireworks.abeall.com) . Version: 0.6.1  --><!DOCTYPE svg PUBLIC "-//W3C//DTD SVG 1.1//EN" "http://www.w3.org/Graphics/SVG/1.1/DTD/svg11.dtd"><svg id="Untitled-Page%201" viewBox="0 0 20 20" style="background-color:#ffffff00" version="1.1"	xmlns="http://www.w3.org/2000/svg" xmlns:xlink="http://www.w3.org/1999/xlink" xml:space="preserve"	x="0px" y="0px" width="20px" height="20px">	<g id="Layer%201">		<g visibility="hidden">			<path d="M 9.9648 0 C 4.4624 0 0 4.4604 0 9.9609 C 0 15.4615 4.4624 19.9222 9.9648 19.9222 C 15.4678 19.9222 19.9302 15.4615 19.9302 9.9609 C 19.9302 4.4604 15.4678 0 9.9648 0 ZM 9.9648 16.3126 L 8.4534 16.3126 L 8.4534 10.3519 L 6.8767 10.3519 L 6.8767 8.2058 L 8.4534 8.2058 L 8.4534 6.3725 C 8.4534 5.3492 8.9233 4.3853 9.9648 3.913 C 10.3896 3.7203 10.9094 3.6093 11.531 3.6093 C 12.4001 3.6093 13.0427 3.6927 13.0427 3.6927 L 12.9919 5.697 C 12.9919 5.697 12.3364 5.6907 11.6216 5.6907 C 10.8477 5.6907 10.7236 6.047 10.7236 6.6386 L 10.7236 8.2058 L 13.0533 8.2058 L 12.952 10.3519 L 10.7236 10.3519 L 10.7236 16.3126 L 9.9648 16.3126 Z" fill="#2e3282"/>		</g>		<g visibility="hidden">			<path d="M 9.9651 0.0778 C 4.4626 0.0778 0.0002 4.5383 0.0002 10.0391 C 0.0002 15.5394 4.4626 20 9.9651 20 C 15.4679 20 19.9304 15.5394 19.9304 10.0391 C 19.9304 4.5383 15.4679 0.0778 9.9651 0.0778 ZM 9.9651 16.029 C 6.726 15.9916 4.1104 13.3546 4.1104 10.108 C 4.1104 9.69 4.1542 9.2819 4.2368 8.8881 C 3.9229 8.3723 3.7419 7.7667 3.7419 7.119 C 3.7419 5.2359 5.2698 3.7087 7.1536 3.7087 C 7.8472 3.7087 8.4923 3.9163 9.0313 4.2716 C 9.3354 4.2197 9.647 4.1907 9.9651 4.187 L 10.0344 4.1865 C 13.3052 4.1865 15.9587 6.8384 15.9587 10.108 C 15.9587 10.5541 15.9087 10.9885 15.8151 11.4063 C 16.054 11.872 16.1885 12.3998 16.1885 12.9588 C 16.1885 14.8418 14.6609 16.369 12.7769 16.369 C 12.1702 16.369 11.6006 16.2102 11.1067 15.9325 C 10.759 15.9961 10.4006 16.0298 10.0344 16.0298 L 9.9651 16.029 ZM 9.9651 12.8611 C 9.6118 12.8602 9.3245 12.8084 9.1108 12.7075 C 8.8967 12.6063 8.7291 12.4767 8.6125 12.3225 C 8.4913 12.1621 8.3766 11.9586 8.2712 11.7174 C 8.0967 11.3128 7.8425 11.0267 7.3995 11.0267 C 7.1509 11.0267 6.9421 11.1043 6.7798 11.2572 C 6.615 11.4118 6.5315 11.6004 6.5315 11.8181 C 6.5315 12.1661 6.6598 12.5273 6.912 12.8912 C 7.5854 13.862 8.7021 14.1959 9.9651 14.2047 L 10.0175 14.2047 C 10.7283 14.2047 11.3528 14.0952 11.874 13.8785 C 12.8616 13.4683 13.4966 12.6889 13.4966 11.6378 C 13.4966 11.229 13.4155 10.8771 13.2551 10.592 C 13.0953 10.3081 12.8699 10.0703 12.5853 9.8849 C 11.8557 9.4104 10.8511 9.218 9.9651 9.0101 C 9.7815 8.9672 9.6033 8.923 9.4335 8.8761 C 9.1503 8.7977 8.7863 8.6474 8.6012 8.4218 C 8.5214 8.3244 8.4827 8.2114 8.4827 8.0762 C 8.4827 7.8555 8.6033 7.6693 8.8511 7.5068 C 9.1082 7.3383 9.4543 7.2528 9.8804 7.2528 L 9.9651 7.254 C 10.3801 7.263 10.6852 7.3394 10.8723 7.4816 C 11.3536 7.8475 11.4067 8.3005 11.76 8.6129 C 11.8795 8.7189 12.0516 8.7725 12.2716 8.7725 C 12.5137 8.7725 12.7191 8.6866 12.882 8.5176 C 13.0437 8.3495 13.1257 8.1567 13.1257 7.9445 C 13.1257 7.7238 13.0631 7.496 12.9399 7.2668 C 12.8179 7.0403 12.6234 6.822 12.3621 6.6179 C 12.1028 6.4153 11.7727 6.2506 11.3809 6.1286 C 10.9917 6.0076 10.5251 5.9463 9.9946 5.9463 L 9.9651 5.9467 C 9.3136 5.9492 8.7371 6.0414 8.2513 6.2211 C 7.3267 6.5629 6.6947 7.2498 6.6947 8.2233 C 6.6947 8.6942 6.824 9.0942 7.0791 9.4134 C 7.3304 9.7277 7.6738 9.9788 8.0997 10.16 C 8.5164 10.3372 9.04 10.4937 9.6567 10.6259 L 9.9651 10.6931 C 10.2788 10.7638 10.5409 10.8314 10.7468 10.8957 C 11.0056 10.9763 11.219 11.094 11.3806 11.2451 C 11.5352 11.3898 11.6101 11.5739 11.6101 11.8084 C 11.6101 12.1052 11.4662 12.3475 11.1704 12.5493 C 10.8676 12.7562 10.4651 12.8611 9.9739 12.8611 L 9.9651 12.8611 Z" fill="#3eb3cf"/>		</g>		<g>			<path d="M 7.3617 0.3441 C 2.0591 1.7712 -1.0834 7.2271 0.3444 12.5278 C 1.7719 17.8282 7.23 20.9697 12.5326 19.5426 C 17.8354 18.1155 20.9781 12.6594 19.5504 7.3589 C 18.1227 2.0582 12.6646 -1.0829 7.3617 0.3441 ZM 11.0375 13.9912 C 8.9364 14.9724 6.3591 14.9862 4.4403 13.3972 C 5.9418 14.0355 7.8348 13.7557 8.8329 12.0341 C 7.9398 12.2746 7.5284 11.6684 8.1395 11.1166 C 7.4672 11.2902 6.9839 11.1929 6.6306 10.8763 C 6.4965 10.7561 6.4923 10.7455 6.6173 10.5916 C 6.754 10.4229 6.9713 10.3057 7.2064 10.223 C 6.4589 10.2109 5.9371 9.9628 5.6593 9.5163 C 5.5675 9.3683 5.5616 9.3789 5.7142 9.2933 C 5.8636 9.2094 6.0638 9.1325 6.2455 9.0737 C 5.6115 8.8898 5.1769 8.5727 4.9735 8.1472 C 4.7809 7.7455 4.8912 7.8324 5.2401 7.8681 C 6.8009 8.0285 8.3685 8.23 9.4355 8.8659 C 9.4462 8.641 9.4625 8.4282 9.4847 8.226 C 9.5905 7.2583 9.8243 6.5392 10.1456 5.9532 C 10.4354 5.4247 10.6077 5.2355 10.4952 5.7616 C 10.5771 5.6498 10.6976 5.498 10.7983 5.4071 C 11.3688 4.9233 11.3917 5.194 11.0162 5.5921 C 12.1268 4.8218 12.235 5.3929 11.0106 6.0214 C 12.0781 5.7554 13.3904 6.1273 14.1023 7.4775 C 14.201 7.6643 14.1422 7.6598 14.3558 7.6409 C 14.8168 7.6005 15.2294 7.4845 15.5983 7.2477 C 15.6349 7.5569 15.2938 7.8559 14.7153 8.1483 C 14.5006 8.2568 14.4507 8.257 14.7396 8.2449 C 15.0953 8.2299 15.4755 8.1486 15.8671 8.0233 C 15.6539 8.4617 15.2103 8.7762 14.6034 8.9473 C 14.5969 10.4405 13.9945 11.6703 13.0616 12.5919 C 12.483 13.163 11.7908 13.6394 11.0375 13.9912 Z" fill="#00a0c6"/>		</g>		<g visibility="hidden">			<path d="M 16.4501 7.6598 L 14.3489 7.6598 L 14.3489 5.5592 L 13.7302 5.5592 L 13.7302 7.6598 L 11.6311 7.6598 L 11.6311 8.2782 L 13.7302 8.2782 L 13.7302 10.3764 L 14.3489 10.3764 L 14.3489 8.2782 L 16.4501 8.2782 L 16.4501 7.6598 ZM 7.4709 11.8788 C 6.5652 11.9079 4.0759 12.1574 4.0759 14.1243 C 4.0759 16.4664 7.1882 16.3543 7.1882 16.3543 C 7.1882 16.3543 7.2948 16.3591 7.4709 16.3526 C 8.3193 16.3201 10.7875 16.0179 10.7875 13.6088 C 10.7875 11.8663 8.7347 11.3038 8.7347 10.6009 C 8.7347 9.8985 10.2814 9.6943 10.2814 8.0432 C 10.2814 7.052 10.1899 6.4551 9.4097 6.1036 C 9.4097 5.8577 10.7875 6.0193 10.7875 5.5599 L 7.7693 5.5599 C 7.7693 5.5599 7.6548 5.5632 7.4709 5.5861 C 6.7019 5.6829 4.7135 6.1346 4.7135 8.2213 C 4.7135 10.8071 7.3848 10.5074 7.3848 10.5074 L 7.3848 11.1634 C 7.3848 11.2469 7.4205 11.2953 7.4709 11.3389 C 7.5795 11.4342 7.7573 11.5081 7.7881 11.8753 C 7.759 11.8753 7.6434 11.8731 7.4709 11.8788 ZM 7.4709 15.6132 C 6.3145 15.6169 5.364 14.9732 5.3057 14.1144 C 5.244 13.2062 6.2039 12.4016 7.45 12.317 L 7.4709 12.3155 C 8.708 12.2404 9.7566 12.9054 9.8174 13.8088 C 9.8792 14.7175 8.9186 15.5219 7.6729 15.6061 C 7.6047 15.611 7.5374 15.6132 7.4709 15.6132 ZM 7.4709 9.8938 C 6.8914 9.7615 6.3455 9.1741 6.127 8.3712 C 5.8447 7.3326 6.2168 6.327 6.9592 6.1252 C 7.1274 6.0798 7.3005 6.0795 7.4709 6.1184 C 8.0498 6.2504 8.5957 6.8376 8.814 7.6406 C 9.0969 8.6794 8.7246 9.6847 7.9824 9.8867 C 7.814 9.9327 7.6406 9.9327 7.4709 9.8938 ZM 0 9.9684 C 0 4.463 4.4646 0 9.9724 0 C 15.4801 0 19.9448 4.463 19.9448 9.9684 C 19.9448 15.4739 15.4801 19.9368 9.9724 19.9368 C 4.4646 19.9368 0 15.4739 0 9.9684 Z" fill="#000000"/>		</g>	</g></svg>